<svg width="16" height="18" viewBox="0 0 16 18" fill="none" xmlns="http://www.w3.org/2000/svg">
<path d="M13.8333 17.3334H2.16667C1.24619 17.3334 0.5 16.5872 0.5 15.6667V4.00002C0.5 3.07955 1.24619 2.33335 2.16667 2.33335H3.83333V0.666687H5.5V2.33335H10.5V0.666687H12.1667V2.33335H13.8333C14.7538 2.33335 15.5 3.07955 15.5 4.00002V15.6667C15.5 16.5872 14.7538 17.3334 13.8333 17.3334ZM2.16667 7.33335V15.6667H13.8333V7.33335H2.16667ZM2.16667 4.00002V5.66669H13.8333V4.00002H2.16667ZM12.1667 14H10.5V12.3334H12.1667V14ZM8.83333 14H7.16667V12.3334H8.83333V14ZM5.5 14H3.83333V12.3334H5.5V14ZM12.1667 10.6667H10.5V9.00002H12.1667V10.6667ZM8.83333 10.6667H7.16667V9.00002H8.83333V10.6667ZM5.5 10.6667H3.83333V9.00002H5.5V10.6667Z" fill="#29D882"/>
</svg>
