<svg width="69" height="69" viewBox="0 0 69 69" fill="none" xmlns="http://www.w3.org/2000/svg">
<path d="M40.25 68.75C55.9901 68.75 68.75 55.9901 68.75 40.25C68.75 24.5099 55.9901 11.75 40.25 11.75C24.5099 11.75 11.75 24.5099 11.75 40.25C11.75 55.9901 24.5099 68.75 40.25 68.75Z" fill="#CAF5E1"/>
<path d="M30 58.5C45.7401 58.5 58.5 45.7401 58.5 30C58.5 14.2599 45.7401 1.5 30 1.5C14.2599 1.5 1.5 14.2599 1.5 30C1.5 45.7401 14.2599 58.5 30 58.5Z" stroke="#95ECC1" stroke-width="3" stroke-miterlimit="10" stroke-linecap="round" stroke-linejoin="round"/>
<path d="M30 43.75C37.5939 43.75 43.75 37.5939 43.75 30C43.75 22.4061 37.5939 16.25 30 16.25C22.4061 16.25 16.25 22.4061 16.25 30C16.25 37.5939 22.4061 43.75 30 43.75Z" stroke="#CAF5E1" stroke-width="3" stroke-miterlimit="10" stroke-linecap="round" stroke-linejoin="round"/>
</svg>
