<svg width="41" height="40" viewBox="0 0 41 40" fill="none" xmlns="http://www.w3.org/2000/svg">
<path d="M0.00390625 20.0041C0.00623333 29.8429 7.16071 38.2201 16.8779 39.7621V25.7841H11.8039V20.0041H16.8839V15.6041C16.6568 13.5192 17.3689 11.4413 18.8272 9.93395C20.2854 8.42663 22.3386 7.64612 24.4299 7.80409C25.931 7.82833 27.4283 7.96202 28.9099 8.20409V13.1221H26.3819C25.5116 13.0081 24.6366 13.2955 24.0034 13.9034C23.3703 14.5113 23.0475 15.3739 23.1259 16.2481V20.0041H28.6679L27.7819 25.7861H23.1259V39.7621C33.6349 38.1013 41.0041 28.5036 39.8949 17.9222C38.7858 7.34083 29.5865 -0.520053 18.9616 0.0344455C8.33663 0.588944 0.0055952 9.36471 0.00390625 20.0041Z" fill="white"/>
</svg>
