<svg width="48" height="48" viewBox="0 0 48 48" fill="none" xmlns="http://www.w3.org/2000/svg">
<g clip-path="url(#clip0)">
<path d="M11.7788 37.3903C11.6312 37.3244 11.5244 37.2501 11.6968 37.1019C11.8036 37.0194 11.9183 36.9453 12.0333 36.8711C13.1083 36.1705 14.1176 35.4042 14.7821 34.2752C15.3402 33.3358 15.2499 32.7836 14.5524 32.0913C10.6627 28.185 8.95606 23.5124 9.8095 17.9907C10.2936 14.8756 11.7131 12.1808 13.7809 9.84017C15.0282 8.42299 16.5134 7.27744 18.1381 6.32139C18.2366 6.26375 18.3762 6.24717 18.3925 6.09892C18.3596 6.0166 18.3022 6.04127 18.2531 6.04127C15.4878 6.04127 12.7226 5.98363 9.96557 6.05766C7.32308 6.14018 5.04206 8.19222 5.05032 11.1342C5.06663 19.7297 5.05032 28.3252 5.05032 36.9288C5.05032 39.5989 7.07699 41.8322 9.72734 41.9311C11.9675 42.0217 14.2076 41.9476 16.4558 41.9393C16.6199 41.9476 16.7841 41.9559 16.9482 41.9559H28.7969C31.7509 41.9559 34.7049 41.9725 37.659 41.9559C40.3995 41.9559 42.6234 39.7308 42.6234 36.9866V32.1162C42.6234 32.0009 42.6644 31.8771 42.5905 31.7535C42.4429 31.7618 42.3853 31.8854 42.3034 31.9679C40.7115 33.5748 38.8324 34.8688 36.7729 35.7836C31.7266 38.0169 26.59 38.1734 21.3793 36.377C20.928 36.2122 20.4357 36.1958 19.9678 36.3111C19.2785 36.484 18.5975 36.6901 17.9164 36.8962C15.9143 37.5222 13.8711 37.8023 11.7788 37.3903ZM17.7277 23.5041C17.8673 23.3229 17.941 23.2157 18.0231 23.1085C19.0981 21.7405 20.1731 20.3724 21.248 18.9961C21.5599 18.6005 21.8715 18.1968 22.0686 17.7187C22.2984 17.1748 22.0521 16.6637 21.4943 16.4661C21.2482 16.3919 20.9856 16.3589 20.723 16.3755C19.2624 16.3672 17.7938 16.3672 16.333 16.3755C16.1278 16.3755 15.9228 16.4002 15.7258 16.4498C15.2663 16.565 14.9874 17.0349 15.1021 17.5047C15.1843 17.8178 15.4304 18.0651 15.7421 18.1394C15.9391 18.1887 16.1443 18.2136 16.3493 18.2053C17.2353 18.2136 18.1299 18.2053 19.0161 18.2136C19.1146 18.2136 19.2376 18.1477 19.3116 18.2961C19.2376 18.395 19.1639 18.4939 19.09 18.5845C17.8181 20.1997 16.5545 21.8232 15.2826 23.4386C14.9706 23.8423 14.8067 24.2874 15.0365 24.7819C15.2663 25.2764 15.7339 25.367 16.2099 25.4C16.5873 25.4247 16.9729 25.4083 17.3586 25.4083C18.6879 25.4083 20.0089 25.4166 21.3382 25.4C22.0439 25.3917 22.4212 24.9633 22.3475 24.304C22.2899 23.7848 21.9371 23.5128 21.2808 23.5047C20.1237 23.4958 18.9668 23.5041 17.7277 23.5041ZM27.2461 19.1692C26.2205 18.271 25.0881 18.2132 23.9803 18.8725C22.6347 19.6635 22.1423 20.9575 22.3065 22.4574C22.4623 23.8584 23.0695 25.004 24.5301 25.4736C25.4409 25.7703 26.2861 25.6631 27.0328 25.0533C27.2298 24.8968 27.2872 24.9298 27.4267 25.1029C27.6976 25.4489 28.1652 25.5808 28.5756 25.4243C28.986 25.3007 29.2566 24.9215 29.2566 24.4931C29.2649 22.845 29.273 21.1966 29.2566 19.5485C29.2484 18.8891 28.633 18.4688 27.993 18.6007C27.64 18.6747 27.443 18.9138 27.2461 19.1692ZM32.9326 22.2267C32.8998 24.287 34.5984 25.8446 36.7318 25.6302C38.6929 25.4324 39.9648 23.9573 39.8991 21.8723C39.8335 19.812 38.3072 18.4029 36.2149 18.4686C34.2537 18.5265 32.867 20.1087 32.9326 22.2267ZM32.2105 20.5868C32.2105 19.293 32.2187 18.0075 32.2105 16.7135C32.2105 16.0542 31.792 15.6422 31.1683 15.6505C30.5612 15.6587 30.159 16.0707 30.151 16.7054C30.1427 17.0927 30.151 17.4719 30.151 17.859V24.4108C30.151 24.9217 30.4627 25.3668 30.8729 25.4738C31.4392 25.6304 32.0218 25.2926 32.1694 24.7239C32.194 24.625 32.2105 24.5261 32.2022 24.4189C32.2187 23.1415 32.2105 21.8642 32.2105 20.5868Z" fill="#FDFEFE"/>
<path d="M16.4467 41.9505C14.2066 41.9505 11.9582 42.0247 9.71804 41.9422C7.06769 41.835 5.04102 39.6017 5.04102 36.9399C5.04102 28.3444 5.05733 19.7491 5.04102 11.1453C5.04102 8.20317 7.33029 6.15133 9.96432 6.0771C12.7214 6.00287 15.4865 6.06052 18.2519 6.06052C18.3012 6.06052 18.3666 6.03584 18.3912 6.11816C18.3749 6.26661 18.2271 6.28299 18.1369 6.34063C16.5122 7.29668 15.027 8.44203 13.7796 9.85961C11.7203 12.2001 10.2926 14.8868 9.80846 18.0102C8.95501 23.5233 10.67 28.2043 14.5513 32.1107C15.2406 32.8111 15.3309 33.3552 14.7811 34.2947C14.1166 35.4236 13.1072 36.1902 12.0323 36.8906C11.9175 36.9565 11.8025 37.039 11.6877 37.113C11.5153 37.2615 11.6221 37.3355 11.7697 37.4014C11.8025 37.4757 11.8436 37.5416 11.8927 37.6075C12.8364 38.4481 13.7307 39.3463 14.6581 40.2034C15.0928 40.6071 15.5278 41.0276 15.9463 41.4479C16.1185 41.6044 16.4056 41.6538 16.4467 41.9505Z" fill="white"/>
<path d="M16.4465 41.9476C16.4054 41.6592 16.1183 41.6096 15.9459 41.4367C15.5274 41.0081 15.0924 40.5962 14.6577 40.1923C13.7303 39.3351 12.836 38.4369 11.8923 37.5964C11.843 37.5304 11.8021 37.4645 11.7693 37.3903C13.8616 37.8025 15.9048 37.5221 17.9152 36.9041C18.5962 36.698 19.2773 36.4921 19.9666 36.3189C20.4344 36.1954 20.9268 36.22 21.3781 36.3849C26.5803 38.1815 31.7171 38.0166 36.7717 35.7915C38.8312 34.8767 40.7104 33.5912 42.3021 31.9841C42.3841 31.9018 42.4417 31.778 42.5893 31.7699C42.6632 31.8852 42.6221 32.009 42.6221 32.1325V36.9536C42.6386 39.706 40.4394 41.9476 37.6988 41.9725H37.6577C34.7037 41.9889 31.7497 41.9725 28.7957 41.9725H16.9387C16.7748 41.9559 16.6106 41.9476 16.4465 41.9476Z" fill="white"/>
<path d="M17.7266 23.5041C18.9657 23.5041 20.1308 23.4958 21.2878 23.5041C21.936 23.5123 22.2888 23.7842 22.3545 24.3034C22.4284 24.9544 22.0508 25.3911 21.3452 25.3994C20.0159 25.4159 18.6948 25.4076 17.3653 25.4076C16.9797 25.4076 16.6021 25.424 16.2166 25.3994C15.7408 25.3747 15.273 25.2758 15.0432 24.7813C14.8134 24.2868 14.9776 23.8418 15.2895 23.4379C16.5531 21.8227 17.8251 20.1993 19.0968 18.5839C19.1707 18.485 19.2446 18.3861 19.3183 18.2955C19.2361 18.1553 19.1213 18.2212 19.0229 18.2129C18.1368 18.2047 17.2423 18.2129 16.3562 18.2047C16.151 18.2047 15.946 18.18 15.749 18.1387C15.2812 18.0315 14.9941 17.5619 15.1008 17.1004C15.1747 16.7871 15.4208 16.5316 15.7327 16.4574C15.9297 16.4078 16.1349 16.3832 16.3399 16.3832C17.8005 16.3749 19.2693 16.3749 20.7299 16.3832C20.9925 16.3749 21.2469 16.4078 21.5012 16.4738C22.0592 16.6633 22.2973 17.1825 22.0756 17.7263C21.8786 18.1962 21.5669 18.5999 21.2549 19.0037C20.18 20.3801 19.105 21.7479 18.0303 23.1078C17.9398 23.2156 17.8579 23.3228 17.7266 23.5041Z" fill="white"/>
<path d="M27.2453 19.1693C27.4422 18.9138 27.6474 18.6747 27.9839 18.6088C28.6322 18.4769 29.2393 18.8972 29.2476 19.5566C29.2722 21.2049 29.2641 22.8531 29.2476 24.5012C29.2476 24.9298 28.9687 25.3088 28.5665 25.4326C28.1561 25.5891 27.6885 25.4655 27.4177 25.111C27.2781 24.9381 27.2207 24.9051 27.0238 25.0615C26.2771 25.6714 25.4319 25.7784 24.521 25.4817C23.0604 25.0038 22.4615 23.8583 22.2974 22.4656C22.125 20.9574 22.6257 19.6718 23.9713 18.8806C25.0873 18.2134 26.2197 18.2711 27.2453 19.1693ZM24.3406 22.1773C24.3571 22.54 24.4719 22.886 24.6852 23.1744C25.1282 23.7678 25.9734 23.8914 26.5725 23.4465C26.671 23.3724 26.7612 23.2816 26.8433 23.1744C27.3029 22.5481 27.3029 21.518 26.8433 20.8916C26.6136 20.5703 26.2525 20.3807 25.8668 20.3724C24.9643 20.3148 24.3323 21.0154 24.3406 22.1773ZM32.9318 22.2267C32.8662 20.1087 34.2529 18.5265 36.2221 18.4689C38.3147 18.4029 39.8407 19.8122 39.9064 21.8725C39.972 23.9576 38.7001 25.4328 36.7391 25.6304C34.5974 25.8446 32.899 24.287 32.9318 22.2267ZM34.9913 22.0289C34.9748 22.4409 35.0981 22.8448 35.3441 23.1825C35.7954 23.7759 36.6406 23.8912 37.2315 23.4299C37.3217 23.364 37.3956 23.2814 37.4695 23.1991C37.9453 22.5727 37.9453 21.518 37.4777 20.8916C37.248 20.5785 36.8869 20.3807 36.5013 20.3724C35.615 20.3231 34.9913 20.9988 34.9913 22.0289ZM32.2097 20.5868C32.2097 21.8643 32.2179 23.1417 32.2097 24.4189C32.2179 25.004 31.7584 25.4902 31.1758 25.5068C31.0773 25.5068 30.9706 25.4985 30.8721 25.4738C30.4619 25.3666 30.1502 24.93 30.1502 24.4108V17.8589C30.1502 17.4716 30.1419 17.0925 30.1502 16.7052C30.1584 16.0708 30.5604 15.6586 31.1675 15.6586C31.7912 15.6503 32.2097 16.0625 32.2097 16.7216C32.2179 18.0073 32.2097 19.3011 32.2097 20.5868Z" fill="white"/>
<path d="M24.3404 22.1774C24.3322 21.0155 24.9641 20.3149 25.8584 20.3644C26.244 20.381 26.6051 20.5705 26.8349 20.8919C27.2944 21.51 27.2944 22.5483 26.8349 23.1747C26.3919 23.7681 25.5467 23.8917 24.9476 23.4467C24.8491 23.3727 24.7589 23.2819 24.6767 23.1747C24.4717 22.8861 24.3569 22.54 24.3404 22.1774ZM34.9911 22.0289C34.9911 21.007 35.6148 20.3229 36.5009 20.3725C36.8865 20.3808 37.2476 20.5786 37.4773 20.8917C37.9451 21.518 37.9451 22.5811 37.4691 23.1992C37.0095 23.7843 36.1561 23.8832 35.5735 23.4216C35.4831 23.3557 35.4094 23.2732 35.3437 23.1826C35.0979 22.8448 34.9829 22.4411 34.9911 22.0289Z" fill="#FDFEFE"/>
</g>
<defs>
<clipPath id="clip0">
<rect width="37.7561" height="36" fill="white" transform="translate(5 6)"/>
</clipPath>
</defs>
</svg>
