<svg width="180" height="129" viewBox="0 0 180 129" fill="none" xmlns="http://www.w3.org/2000/svg">
<g clip-path="url(#clip0)">
<path d="M116.64 91.8927L147.761 91.8927C142.892 93.5958 137.651 94.5171 132.201 94.5171C126.751 94.5171 121.517 93.5881 116.64 91.8927Z" fill="#95ECC1"/>
<path d="M109.007 88.4321C107.056 87.3328 105.198 86.0942 103.433 84.7394L160.976 84.7394C159.211 86.0942 157.353 87.3328 155.402 88.4321L109.007 88.4321Z" fill="#95ECC1"/>
<path d="M95.9854 77.5863L168.431 77.5863C167.347 78.8791 166.202 80.1101 164.994 81.279L99.4226 81.279C98.2149 80.1101 97.0614 78.8791 95.9854 77.5863Z" fill="#95ECC1"/>
<path d="M93.3455 74.1334C92.5171 72.9412 91.7507 71.7103 91.0308 70.4407L173.37 70.4407C172.658 71.7103 171.884 72.9412 171.056 74.1334L93.3455 74.1334Z" fill="#95ECC1"/>
<path d="M89.2655 66.9803C88.7081 65.7726 88.2049 64.5417 87.7559 63.2876L176.653 63.2876C176.204 64.5417 175.693 65.7726 175.143 66.9803L89.2655 66.9803Z" fill="#95ECC1"/>
<path d="M86.6567 59.827C86.3238 58.6116 86.0374 57.3807 85.7974 56.1343L178.596 56.1343C178.356 57.3807 178.069 58.6116 177.737 59.827L86.6567 59.827Z" fill="#95ECC1"/>
<path d="M85.2787 52.6816C85.1393 51.4662 85.0464 50.2353 85 48.9889L179.401 48.9889C179.355 50.2353 179.262 51.4662 179.122 52.6816L85.2787 52.6816Z" fill="#95ECC1"/>
<path d="M85 45.5283C85.0464 44.2819 85.1393 43.051 85.2787 41.8356L179.13 41.8356C179.269 43.051 179.362 44.2819 179.409 45.5283L85 45.5283Z" fill="#95ECC1"/>
<path d="M85.8057 38.3751C86.0457 37.1287 86.3321 35.8978 86.665 34.6824L177.753 34.6824C178.085 35.8978 178.372 37.1287 178.612 38.3751L85.8057 38.3751Z" fill="#95ECC1"/>
<path d="M87.7559 31.2296C88.2049 29.9755 88.7158 28.7446 89.2655 27.5369L175.135 27.5369C175.693 28.7446 176.196 29.9755 176.645 31.2296L87.7559 31.2296Z" fill="#95ECC1"/>
<path d="M91.0308 24.0763C91.743 22.8067 92.5171 21.5758 93.3455 20.3835L171.063 20.3835C171.892 21.5757 172.658 22.8067 173.378 24.0763L91.0308 24.0763Z" fill="#95ECC1"/>
<path d="M95.9854 16.9309C97.0692 15.6381 98.2149 14.4071 99.4226 13.2382L164.986 13.2382C166.194 14.4071 167.347 15.6381 168.423 16.9309L95.9854 16.9309Z" fill="#95ECC1"/>
<path d="M103.433 9.77758C105.198 8.4228 107.056 7.18415 109.007 6.08484L155.402 6.08484C157.353 7.18414 159.211 8.4228 160.976 9.77758L103.433 9.77758Z" fill="#95ECC1"/>
<path d="M147.769 2.6244L116.647 2.6244C121.517 0.928991 126.75 -4.41607e-07 132.2 -6.79837e-07C137.658 -9.18407e-07 142.891 0.92899 147.769 2.6244Z" fill="#95ECC1"/>
<path d="M122.58 124.2C122.58 126.65 124.56 128.63 127.01 128.63C129.45 128.63 131.44 126.65 131.44 124.2C131.44 121.75 129.46 119.77 127.01 119.77C124.56 119.77 122.58 121.76 122.58 124.2ZM102.15 124.2C102.15 126.65 104.13 128.63 106.58 128.63C109.02 128.63 111.01 126.65 111.01 124.2C111.01 121.75 109.03 119.77 106.58 119.77C104.13 119.77 102.15 121.76 102.15 124.2ZM81.72 124.2C81.72 126.65 83.7 128.63 86.15 128.63C88.59 128.63 90.58 126.65 90.58 124.2C90.58 121.75 88.6 119.77 86.15 119.77C83.7 119.77 81.72 121.76 81.72 124.2ZM61.29 124.2C61.29 126.65 63.27 128.63 65.72 128.63C68.16 128.63 70.15 126.65 70.15 124.2C70.15 121.75 68.17 119.77 65.72 119.77C63.27 119.77 61.29 121.76 61.29 124.2ZM40.86 124.2C40.86 126.65 42.84 128.63 45.29 128.63C47.73 128.63 49.72 126.65 49.72 124.2C49.72 121.75 47.74 119.77 45.29 119.77C42.84 119.77 40.86 121.76 40.86 124.2ZM20.43 124.2C20.43 126.65 22.41 128.63 24.86 128.63C27.3 128.63 29.29 126.65 29.29 124.2C29.29 121.75 27.31 119.77 24.86 119.77C22.41 119.77 20.43 121.76 20.43 124.2ZM1.93641e-07 124.2C3.00734e-07 126.65 1.98 128.63 4.43 128.63C6.87 128.63 8.86 126.65 8.86 124.2C8.86 121.75 6.88 119.77 4.43 119.77C1.98 119.77 8.69853e-08 121.76 1.93641e-07 124.2Z" fill="#CAF5E1"/>
<path d="M122.69 104.19C122.69 106.64 124.67 108.62 127.12 108.62C129.56 108.62 131.55 106.64 131.55 104.19C131.55 101.74 129.57 99.76 127.12 99.76C124.67 99.76 122.69 101.74 122.69 104.19ZM102.26 104.19C102.26 106.64 104.24 108.62 106.69 108.62C109.13 108.62 111.12 106.64 111.12 104.19C111.12 101.74 109.14 99.76 106.69 99.76C104.25 99.76 102.26 101.74 102.26 104.19ZM81.8301 104.19C81.8301 106.64 83.8101 108.62 86.2601 108.62C88.7001 108.62 90.6901 106.64 90.6901 104.19C90.6901 101.74 88.7101 99.76 86.2601 99.76C83.8201 99.76 81.8301 101.74 81.8301 104.19ZM61.4001 104.19C61.4001 106.64 63.3801 108.62 65.8301 108.62C68.2701 108.62 70.2601 106.64 70.2601 104.19C70.2601 101.74 68.2801 99.76 65.8301 99.76C63.3901 99.76 61.4001 101.74 61.4001 104.19ZM40.9701 104.19C40.9701 106.64 42.9501 108.62 45.4001 108.62C47.8401 108.62 49.8301 106.64 49.8301 104.19C49.8301 101.74 47.8501 99.76 45.4001 99.76C42.9601 99.76 40.9701 101.74 40.9701 104.19ZM20.5501 104.19C20.5501 106.64 22.5301 108.62 24.9801 108.62C27.4201 108.62 29.4101 106.64 29.4101 104.19C29.4101 101.74 27.4301 99.76 24.9801 99.76C22.5301 99.76 20.5501 101.74 20.5501 104.19ZM0.120117 104.19C0.120117 106.64 2.10012 108.62 4.55012 108.62C6.99012 108.62 8.98012 106.64 8.98012 104.19C8.98012 101.74 7.00012 99.76 4.55012 99.76C2.10012 99.76 0.120117 101.74 0.120117 104.19Z" fill="#CAF5E1"/>
<path d="M122.81 84.17C122.81 86.62 124.79 88.6 127.24 88.6C129.68 88.6 131.67 86.62 131.67 84.17C131.67 81.72 129.69 79.74 127.24 79.74C124.79 79.74 122.81 81.72 122.81 84.17ZM102.38 84.17C102.38 86.62 104.36 88.6 106.81 88.6C109.25 88.6 111.24 86.62 111.24 84.17C111.24 81.72 109.26 79.74 106.81 79.74C104.36 79.74 102.38 81.72 102.38 84.17ZM81.95 84.17C81.95 86.62 83.93 88.6 86.38 88.6C88.82 88.6 90.81 86.62 90.81 84.17C90.81 81.72 88.83 79.74 86.38 79.74C83.93 79.74 81.95 81.72 81.95 84.17ZM61.52 84.17C61.52 86.62 63.5 88.6 65.95 88.6C68.39 88.6 70.38 86.62 70.38 84.17C70.38 81.72 68.4 79.74 65.95 79.74C63.5 79.74 61.52 81.72 61.52 84.17ZM41.09 84.17C41.09 86.62 43.07 88.6 45.52 88.6C47.96 88.6 49.95 86.62 49.95 84.17C49.95 81.72 47.97 79.74 45.52 79.74C43.07 79.74 41.09 81.72 41.09 84.17ZM20.66 84.17C20.66 86.62 22.64 88.6 25.09 88.6C27.53 88.6 29.52 86.62 29.52 84.17C29.52 81.72 27.54 79.74 25.09 79.74C22.64 79.74 20.66 81.72 20.66 84.17ZM0.229981 84.17C0.229981 86.62 2.20998 88.6 4.65998 88.6C7.09998 88.6 9.08998 86.62 9.08998 84.17C9.08998 81.72 7.10998 79.74 4.65998 79.74C2.20998 79.74 0.229981 81.72 0.229981 84.17Z" fill="#CAF5E1"/>
<path d="M122.92 64.15C122.92 66.6 124.9 68.58 127.35 68.58C129.79 68.58 131.78 66.6 131.78 64.15C131.78 61.7 129.8 59.72 127.35 59.72C124.91 59.72 122.92 61.71 122.92 64.15ZM102.49 64.15C102.49 66.6 104.47 68.58 106.92 68.58C109.36 68.58 111.35 66.6 111.35 64.15C111.35 61.7 109.37 59.72 106.92 59.72C104.48 59.72 102.49 61.71 102.49 64.15ZM82.0701 64.15C82.0701 66.6 84.0501 68.58 86.5001 68.58C88.9401 68.58 90.9301 66.6 90.9301 64.15C90.9301 61.7 88.9501 59.72 86.5001 59.72C84.0501 59.72 82.0701 61.71 82.0701 64.15ZM61.6401 64.15C61.6401 66.6 63.6201 68.58 66.0701 68.58C68.5201 68.58 70.5001 66.6 70.5001 64.15C70.5001 61.7 68.5201 59.72 66.0701 59.72C63.6201 59.72 61.6401 61.71 61.6401 64.15ZM41.2101 64.15C41.2101 66.6 43.1901 68.58 45.6401 68.58C48.0801 68.58 50.0701 66.6 50.0701 64.15C50.0701 61.7 48.0901 59.72 45.6401 59.72C43.1901 59.72 41.2101 61.71 41.2101 64.15ZM20.7801 64.15C20.7801 66.6 22.7601 68.58 25.2101 68.58C27.6601 68.58 29.6401 66.6 29.6401 64.15C29.6401 61.7 27.6601 59.72 25.2101 59.72C22.7601 59.72 20.7801 61.71 20.7801 64.15ZM0.350098 64.15C0.350098 66.6 2.3301 68.58 4.7801 68.58C7.2201 68.58 9.2101 66.6 9.2101 64.15C9.2101 61.7 7.2301 59.72 4.7801 59.72C2.3301 59.72 0.350098 61.71 0.350098 64.15Z" fill="#CAF5E1"/>
</g>
<defs>
<clipPath id="clip0">
<rect width="129" height="180" fill="white" transform="matrix(4.37114e-08 1 1 -4.37114e-08 0 0)"/>
</clipPath>
</defs>
</svg>
