<svg width="100" height="110" viewBox="0 0 100 110" fill="none" xmlns="http://www.w3.org/2000/svg">
<g clip-path="url(#clip0)">
<path d="M6.58283 50.6785C5.19699 52.2239 2.81796 52.3613 1.25889 50.9876C-0.300182 49.6138 -0.438767 47.2556 0.947075 45.7102C2.33292 44.1648 4.71194 44.0274 6.27102 45.4011C7.83009 46.7748 7.96867 49.133 6.58283 50.6785Z" fill="#95ECC1"/>
<path d="M23.0511 65.1941C21.6652 66.7395 19.2862 66.8769 17.7272 65.5032C16.1681 64.1295 16.0295 61.7713 17.4153 60.2258C18.8012 58.6804 21.1802 58.543 22.7393 59.9167C24.2983 61.2905 24.4369 63.6487 23.0511 65.1941Z" fill="#5DE2A1"/>
<path d="M55.9881 94.2251C54.6023 95.7705 52.2232 95.9079 50.6642 94.5342C49.1051 93.1605 48.9665 90.8023 50.3523 89.2568C51.7382 87.7114 54.1172 87.574 55.6763 88.9477C57.2238 90.3215 57.3739 92.6797 55.9881 94.2251Z" fill="#95ECC1"/>
<path d="M72.4564 108.741C71.0705 110.286 68.6915 110.424 67.1324 109.05C65.5734 107.676 65.4348 105.318 66.8206 103.772C68.2065 102.227 70.5855 102.09 72.1445 103.463C73.6921 104.837 73.8307 107.207 72.4564 108.741Z" fill="#5DE2A1"/>
<path d="M36.3436 50.3694C34.9577 51.9148 32.5787 52.0522 31.0196 50.6785C29.4606 49.3048 29.322 46.9465 30.7078 45.4011C32.0937 43.8557 34.4727 43.7183 36.0318 45.092C37.5908 46.4657 37.7294 48.8354 36.3436 50.3694Z" fill="#95ECC1"/>
<path d="M52.8118 64.8964C51.426 66.4418 49.047 66.5792 47.4879 65.2054C45.9288 63.8317 45.7902 61.4735 47.1761 59.9281C48.5619 58.3827 50.941 58.2453 52.5 59.619C54.0591 60.9927 54.1977 63.3509 52.8118 64.8964Z" fill="#95ECC1"/>
<path d="M69.2806 79.412C67.8947 80.9574 65.5157 81.0948 63.9566 79.7211C62.3976 78.3474 62.259 75.9892 63.6448 74.4437C65.0307 72.8983 67.4097 72.7609 68.9688 74.1346C70.5278 75.5084 70.6664 77.8666 69.2806 79.412Z" fill="#5DE2A1"/>
<path d="M49.6478 35.5563C48.2619 37.1017 45.8829 37.2391 44.3238 35.8654C42.7648 34.4916 42.6262 32.1334 44.012 30.588C45.3979 29.0426 47.7769 28.9052 49.336 30.2789C50.8835 31.6526 51.0336 34.0108 49.6478 35.5563Z" fill="#5DE2A1"/>
<path d="M66.116 50.0719C64.7302 51.6173 62.3512 51.7547 60.7921 50.381C59.233 49.0073 59.0944 46.6491 60.4803 45.1036C61.8661 43.5582 64.2451 43.4208 65.8042 44.7946C67.3517 46.1683 67.4903 48.5265 66.116 50.0719Z" fill="#95ECC1"/>
<path d="M82.5731 64.5874C81.1872 66.1328 78.8082 66.2702 77.2491 64.8965C75.69 63.5228 75.5515 61.1646 76.9373 59.6191C78.3232 58.0737 80.7022 57.9363 82.2613 59.3101C83.8203 60.6838 83.9589 63.042 82.5731 64.5874Z" fill="#95ECC1"/>
<path d="M99.0413 79.1029C97.6555 80.6483 95.2765 80.7857 93.7174 79.412C92.1583 78.0383 92.0197 75.6801 93.4056 74.1346C94.7914 72.5892 97.1704 72.4518 98.7295 73.8256C100.289 75.1993 100.427 77.5689 99.0413 79.1029Z" fill="#95ECC1"/>
<path d="M46.472 6.21594C45.0861 7.76137 42.7071 7.89874 41.148 6.52502C39.589 5.15131 39.4504 2.79311 40.8362 1.24768C42.2221 -0.297746 44.6011 -0.435117 46.1602 0.938595C47.7192 2.31231 47.8578 4.68196 46.472 6.21594Z" fill="#5DE2A1"/>
<path d="M79.409 35.2585C78.0232 36.804 75.6441 36.9413 74.0851 35.5676C72.526 34.1939 72.3874 31.8357 73.7732 30.2903C75.1591 28.7449 77.5381 28.6075 79.0972 29.9812C80.6563 31.3549 80.7948 33.7131 79.409 35.2585Z" fill="#95ECC1"/>
<path d="M95.8773 49.7742C94.4914 51.3196 92.1124 51.457 90.5533 50.0833C88.9943 48.7095 88.8557 46.3513 90.2415 44.8059C91.6273 43.2605 94.0064 43.1231 95.5655 44.4968C97.113 45.8705 97.2516 48.2287 95.8773 49.7742Z" fill="#5DE2A1"/>
</g>
<defs>
<clipPath id="clip0">
<rect width="100" height="110" fill="white"/>
</clipPath>
</defs>
</svg>
