<svg width="147" height="286" viewBox="0 0 147 286" fill="none" xmlns="http://www.w3.org/2000/svg">
<path d="M72.1509 228.32L83.0767 239.281" stroke="#C6C9CB" stroke-width="1.6547" stroke-miterlimit="10" stroke-linecap="round" stroke-linejoin="round"/>
<path d="M34.6387 190.753L54.7216 210.884" stroke="#C6C9CB" stroke-width="1.6547" stroke-miterlimit="10" stroke-linecap="round" stroke-linejoin="round"/>
<path d="M68.6689 193.189L144.339 268.951" stroke="#C6C9CB" stroke-width="1.6547" stroke-miterlimit="10" stroke-linecap="round" stroke-linejoin="round"/>
<path d="M30.106 154.551L45.4353 169.921" stroke="#C6C9CB" stroke-width="1.6547" stroke-miterlimit="10" stroke-linecap="round" stroke-linejoin="round"/>
<path d="M123.058 215.976L189.626 282.642" stroke="#909398" stroke-width="1.6547" stroke-miterlimit="10" stroke-linecap="round" stroke-linejoin="round"/>
<path d="M22.6069 115.378L93.5787 186.472" stroke="#909398" stroke-width="1.6547" stroke-miterlimit="10" stroke-linecap="round" stroke-linejoin="round"/>
<path d="M78.2495 139.439L195.762 257.123" stroke="#C6C9CB" stroke-width="1.6547" stroke-miterlimit="10" stroke-linecap="round" stroke-linejoin="round"/>
<path d="M29.6636 90.8005L54.5369 115.692" stroke="#C6C9CB" stroke-width="1.6547" stroke-miterlimit="10" stroke-linecap="round" stroke-linejoin="round"/>
<path d="M1.5293 30.9435L145.573 175.198" stroke="#C6C9CB" stroke-width="1.6547" stroke-miterlimit="10" stroke-linecap="round" stroke-linejoin="round"/>
<path d="M117.052 114.972L257.78 255.906" stroke="#909398" stroke-width="1.6547" stroke-miterlimit="10" stroke-linecap="round" stroke-linejoin="round"/>
<path d="M54.9058 52.7349L87.5911 85.4681" stroke="#909398" stroke-width="1.6547" stroke-miterlimit="10" stroke-linecap="round" stroke-linejoin="round"/>
<path d="M144.375 110.655L235.264 201.695" stroke="#C6C9CB" stroke-width="1.6547" stroke-miterlimit="10" stroke-linecap="round" stroke-linejoin="round"/>
<path d="M51.5708 17.7322L118.747 84.9883" stroke="#C6C9CB" stroke-width="1.6547" stroke-miterlimit="10" stroke-linecap="round" stroke-linejoin="round"/>
<path d="M92.6206 27.161L184.854 119.53" stroke="#909398" stroke-width="1.6547" stroke-miterlimit="10" stroke-linecap="round" stroke-linejoin="round"/>
<path d="M100.23 3.13696L148.208 51.1665" stroke="#C6C9CB" stroke-width="1.6547" stroke-miterlimit="10" stroke-linecap="round" stroke-linejoin="round"/>
<path d="M138.609 9.89026L201.861 73.2347" stroke="#909398" stroke-width="1.6547" stroke-miterlimit="10" stroke-linecap="round" stroke-linejoin="round"/>
</svg>
