<svg width="147" height="282" viewBox="0 0 147 282" fill="none" xmlns="http://www.w3.org/2000/svg">
<path d="M72.1509 226.32L83.0767 237.281" stroke="#CAF5E1" stroke-width="1.6547" stroke-miterlimit="10" stroke-linecap="round" stroke-linejoin="round"/>
<path d="M34.6387 188.753L54.7216 208.884" stroke="#CAF5E1" stroke-width="1.6547" stroke-miterlimit="10" stroke-linecap="round" stroke-linejoin="round"/>
<path d="M68.6689 191.189L144.339 266.951" stroke="#CAF5E1" stroke-width="1.6547" stroke-miterlimit="10" stroke-linecap="round" stroke-linejoin="round"/>
<path d="M30.106 152.551L45.4353 167.921" stroke="#CAF5E1" stroke-width="1.6547" stroke-miterlimit="10" stroke-linecap="round" stroke-linejoin="round"/>
<path d="M123.058 213.976L189.626 280.642" stroke="#5DE2A1" stroke-width="1.6547" stroke-miterlimit="10" stroke-linecap="round" stroke-linejoin="round"/>
<path d="M22.6069 113.378L93.5787 184.472" stroke="#5DE2A1" stroke-width="1.6547" stroke-miterlimit="10" stroke-linecap="round" stroke-linejoin="round"/>
<path d="M78.2495 137.439L195.762 255.123" stroke="#CAF5E1" stroke-width="1.6547" stroke-miterlimit="10" stroke-linecap="round" stroke-linejoin="round"/>
<path d="M29.6636 88.8005L54.5369 113.692" stroke="#CAF5E1" stroke-width="1.6547" stroke-miterlimit="10" stroke-linecap="round" stroke-linejoin="round"/>
<path d="M1.5293 28.9435L145.573 173.198" stroke="#CAF5E1" stroke-width="1.6547" stroke-miterlimit="10" stroke-linecap="round" stroke-linejoin="round"/>
<path d="M117.052 112.972L257.78 253.906" stroke="#5DE2A1" stroke-width="1.6547" stroke-miterlimit="10" stroke-linecap="round" stroke-linejoin="round"/>
<path d="M54.9058 50.7349L87.5911 83.4681" stroke="#5DE2A1" stroke-width="1.6547" stroke-miterlimit="10" stroke-linecap="round" stroke-linejoin="round"/>
<path d="M144.375 108.655L235.264 199.695" stroke="#CAF5E1" stroke-width="1.6547" stroke-miterlimit="10" stroke-linecap="round" stroke-linejoin="round"/>
<path d="M51.5708 15.7322L118.747 82.9883" stroke="#CAF5E1" stroke-width="1.6547" stroke-miterlimit="10" stroke-linecap="round" stroke-linejoin="round"/>
<path d="M92.6206 25.161L184.854 117.53" stroke="#5DE2A1" stroke-width="1.6547" stroke-miterlimit="10" stroke-linecap="round" stroke-linejoin="round"/>
<path d="M100.23 1.13696L148.208 49.1665" stroke="#CAF5E1" stroke-width="1.6547" stroke-miterlimit="10" stroke-linecap="round" stroke-linejoin="round"/>
<path d="M138.609 7.89026L201.861 71.2347" stroke="#5DE2A1" stroke-width="1.6547" stroke-miterlimit="10" stroke-linecap="round" stroke-linejoin="round"/>
</svg>
