<svg width="157" height="263" viewBox="0 0 157 263" fill="none" xmlns="http://www.w3.org/2000/svg">
<path d="M85.5135 252.372L76.2939 257.692L79.3671 263L85.5135 252.372Z" fill="#343841"/>
<path d="M69.1465 245.307L72.7435 251.534L92.6261 240.057L99.8084 227.614L69.1465 245.307Z" fill="#343841"/>
<path d="M61.999 232.933L65.596 239.149L106.921 215.298L114.103 202.866L61.999 232.933Z" fill="#343841"/>
<path d="M54.8516 220.56L58.4369 226.776L121.216 190.551L128.41 178.108L54.8516 220.56Z" fill="#343841"/>
<path d="M47.7041 208.186L51.2895 214.402L135.523 165.792L142.705 153.36L47.7041 208.186Z" fill="#343841"/>
<path d="M40.5566 195.801L44.142 202.028L149.818 141.045L157 128.602L40.5566 195.801Z" fill="#343841"/>
<path d="M33.3975 183.427L36.9945 189.643L147.978 125.598H133.602L33.3975 183.427Z" fill="#343841"/>
<path d="M26.25 171.054L29.847 177.269L119.377 125.598H105.012L26.25 171.054Z" fill="#343841"/>
<path d="M19.1025 158.68L22.6996 164.896L90.7868 125.598H76.4104L19.1025 158.68Z" fill="#343841"/>
<path d="M11.9551 146.295L15.5521 152.522L62.1853 125.598H47.8205L11.9551 146.295Z" fill="#343841"/>
<path d="M4.80762 133.921L8.393 140.137L33.5838 125.598H19.219L4.80762 133.921Z" fill="#343841"/>
<path d="M1.24557 127.763L4.99392 125.598H0" fill="#343841"/>
<path d="M67.7146 115.646C62.3365 115.646 57.9712 119.999 57.9712 125.377C57.9712 130.755 62.3365 135.108 67.7146 135.108C73.0926 135.108 77.458 130.743 77.458 125.377C77.458 119.999 73.0926 115.646 67.7146 115.646Z" fill="#585D63"/>
<path d="M67.7146 96.7538C73.0926 96.7538 77.458 92.4004 77.458 87.0226C77.458 81.6448 73.0926 77.2913 67.7146 77.2913C62.3365 77.2913 57.9712 81.6448 57.9712 87.0226C57.9712 92.3887 62.3365 96.7538 67.7146 96.7538Z" fill="#585D63"/>
<path d="M67.7146 19.4742C73.0926 19.4742 77.458 15.1207 77.458 9.74291C77.458 4.36511 73.0926 0.0116577 67.7146 0.0116577C62.3365 0.0116577 57.9712 4.36511 57.9712 9.74291C57.9712 15.1091 62.3365 19.4742 67.7146 19.4742ZM67.7146 5.09845C70.2756 5.09845 72.3476 7.18206 72.3476 9.73127C72.3476 12.2921 70.2639 14.3641 67.7146 14.3641C65.1536 14.3641 63.0815 12.2805 63.0815 9.73127C63.0815 7.18206 65.1536 5.09845 67.7146 5.09845Z" fill="#585D63"/>
</svg>
